<?xml version="1.0" encoding="UTF-8"?>
<svg width="450px" height="286px" viewBox="0 0 450 286" version="1.1" xmlns="http://www.w3.org/2000/svg" xmlns:xlink="http://www.w3.org/1999/xlink">
    <!-- Generator: Sketch 55.2 (78181) - https://sketchapp.com -->
    <title>logo</title>
    <desc>Created with Sketch.</desc>
    <defs>
        <linearGradient x1="50%" y1="0%" x2="50%" y2="99.5222762%" id="linearGradient-1">
            <stop stop-color="#FFFFFF" offset="0%"></stop>
            <stop stop-color="#FFFFFF" offset="51.2563345%"></stop>
            <stop stop-color="#FFFFFF" offset="100%"></stop>
        </linearGradient>
        <linearGradient x1="-2.22044605e-14%" y1="50%" x2="100%" y2="50%" id="linearGradient-2">
            <stop stop-color="#FFFFFF" offset="0%"></stop>
            <stop stop-color="#FFFFFF" offset="52.4070946%"></stop>
            <stop stop-color="#FFFFFF" offset="100%"></stop>
        </linearGradient>
        <linearGradient x1="50%" y1="0%" x2="50%" y2="100%" id="linearGradient-3">
            <stop stop-color="#FFFFFF" offset="0%"></stop>
            <stop stop-color="#FFFFFF" offset="51.5968117%"></stop>
            <stop stop-color="#FFFFFF" offset="100%"></stop>
            <stop stop-color="#FFFFFF" offset="100%"></stop>
        </linearGradient>
        <linearGradient x1="50%" y1="0%" x2="50%" y2="99.3507179%" id="linearGradient-4">
            <stop stop-color="#FFFFFF" offset="0%"></stop>
            <stop stop-color="#FFFFFF" offset="51.3302365%"></stop>
            <stop stop-color="#FFFFFF" offset="100%"></stop>
        </linearGradient>
        <linearGradient x1="16.9921875%" y1="50%" x2="82.9747071%" y2="7.00708443%" id="linearGradient-5">
            <stop stop-color="#FFFFFF" offset="0%"></stop>
            <stop stop-color="#FFFFFF" offset="49.4035051%"></stop>
            <stop stop-color="#FFFFFF" offset="99.9498522%"></stop>
        </linearGradient>
    </defs>
    <g id="logo" stroke="none" stroke-width="1" fill="none" fill-rule="evenodd">
        <g id="iPhone-8" transform="translate(-575.000000, -57.000000)">
            <g id="logo" transform="translate(575.000000, 57.000000)">
                <path d="M24,83 L118.27282,83 C119.595588,83.089028 120.607632,83.4675058 121.30895,84.1354334 C122.010269,84.803361 122.612289,85.6528769 123.11501,86.683981 L200,286 L107.032953,286 C105.305252,286 103.950757,285.693346 102.969468,285.080037 C101.988178,284.466729 101.24219,283.572878 100.731504,282.398485 L24,83 Z" id="Path" fill="url(#linearGradient-1)"></path>
                <path d="M21.6533518,86 C21.2953876,86.0032766 14.1318657,124.38308 0.162786142,201.139409 C-0.300808552,204.297619 0.225791794,207.023048 1.74258718,209.315698 C3.25938256,211.608348 5.34839998,212.836449 8.00963944,213 L71,212.354078 C38.4601987,128.114749 22.011316,85.9967234 21.6533518,86 Z" id="Path-2" fill="url(#linearGradient-2)"></path>
                <polygon id="Path-3" fill="url(#linearGradient-3)" points="204.832063 286 202.635992 280.442577 154 152.763658 204.832063 0 255 133.641381 206.678267 280.468031"></polygon>
                <path d="M208,0.0122422963 L287.62071,207.207928 C288.156965,208.421784 288.709005,209.328687 289.27683,209.928639 C289.844654,210.52859 291.020133,210.885711 292.803264,211 L386,211 L308.968269,4.97679204 C308.399306,3.41276627 307.415081,2.17164868 306.015595,1.25343927 C304.616109,0.335229867 303.078101,-0.0785024585 301.401568,0.0122422963 L208,0.0122422963 Z" id="Path-4" fill="url(#linearGradient-4)"></path>
                <path d="M386.878493,211 L333,67 L439.488156,67 C444.271142,67.3824046 447.404272,68.9976015 448.887545,71.8455908 C450.370818,74.69358 450.370818,78.3447985 448.887545,82.7992463 L386.878493,211 Z" id="Path-5" fill="url(#linearGradient-5)"></path>
            </g>
        </g>
    </g>
</svg>
